<?xml version="1.0" standalone="no"?><!DOCTYPE svg PUBLIC "-//W3C//DTD SVG 1.1//EN" "http://www.w3.org/Graphics/SVG/1.1/DTD/svg11.dtd"><svg t="1769248570516" class="icon" viewBox="0 0 1024 1024" version="1.1" xmlns="http://www.w3.org/2000/svg" p-id="28764" xmlns:xlink="http://www.w3.org/1999/xlink" width="1024" height="1024"><path d="M449.024 574.976c-12.288-12.288-12.288-32.768 0-45.056L845.824 133.12c12.288-12.288 32.768-12.288 45.056 0 12.288 12.288 12.288 32.768 0 45.056l-396.8 396.8a31.232 31.232 0 0 1-45.056 0z" p-id="28765"></path><path d="M885.248 416.256c-17.92 0-32.256 14.336-32.256 32.256v352.256c0 29.696-24.064 53.248-53.248 53.248H224.256c-29.696 0-53.248-24.064-53.248-53.248V224.256c0-29.696 24.064-53.248 53.248-53.248h341.504c17.408 0 31.744-14.336 31.744-31.744 0-17.92-14.336-32.256-31.744-32.256H224.256c-65.024 0-117.248 52.736-117.248 117.248v576c0 65.024 52.736 117.248 117.248 117.248h576c65.024 0 117.248-52.736 117.248-117.248V448c0-17.92-14.336-31.744-32.256-31.744z" p-id="28766"></path></svg>