<?xml version="1.0" standalone="no"?><!DOCTYPE svg PUBLIC "-//W3C//DTD SVG 1.1//EN" "http://www.w3.org/Graphics/SVG/1.1/DTD/svg11.dtd"><svg t="1769247981906" class="icon" viewBox="0 0 1024 1024" version="1.1" xmlns="http://www.w3.org/2000/svg" p-id="28183" xmlns:xlink="http://www.w3.org/1999/xlink" width="1024" height="1024"><path d="M877.568 254.976c-12.8-12.8-32.768-12.8-45.056 0l-427.52 427.52-212.992-213.504c-12.288-12.288-32.768-12.288-45.056 0-12.288 12.288-12.288 32.768 0 45.056l235.52 235.52c10.752 10.752 27.648 12.288 40.448 4.096 2.048-1.024 3.584-2.56 5.12-4.096l450.048-450.048c12.288-11.776 12.288-32.256-0.512-44.544z m-472.064 467.968H404.48v3.584h-0.512v-3.584h-1.024v-0.512l2.56 0.512z m3.584 3.072l-2.048-2.56-0.512-0.512V726.016h-0.512v-3.584h0.512l1.536 2.56 1.024 1.024c-0.512-1.024-0.512-1.024-0.512-1.536v-2.048h0.512v3.584z" p-id="28184"></path></svg>